PathFileType	4	(X/Y/Z)	D:\Research_projects\MuscleProsody\BulkSports2Dtrack\RetrackedSports2D\p1_sample60_cam1\p1_sample60_cam1_Sports2D\p1_sample60_cam1_Sports2D_px_person00.trc
DataRate	CameraRate	NumFrames	NumMarkers	Units	OrigDataRate	OrigDataStartFrame	OrigNumFrames
60	60	9	22	m	60	487	780
Frame#	Time	Hip			RHip			RKnee			RAnkle			RBigToe			RSmallToe			RHeel			LHip			LKnee			LAnkle			LBigToe			LSmallToe			LHeel			Neck			Head			Nose			RShoulder			RElbow			RWrist			LShoulder			LElbow			LWrist		
		X1	Y1	Z1	X2	Y2	Z2	X3	Y3	Z3	X4	Y4	Z4	X5	Y5	Z5	X6	Y6	Z6	X7	Y7	Z7	X8	Y8	Z8	X9	Y9	Z9	X10	Y10	Z10	X11	Y11	Z11	X12	Y12	Z12	X13	Y13	Z13	X14	Y14	Z14	X15	Y15	Z15	X16	Y16	Z16	X17	Y17	Z17	X18	Y18	Z18	X19	Y19	Z19	X20	Y20	Z20	X21	Y21	Z21	X22	Y22	Z22
487	8.116666666666667	319.60031568490723	545.0190279502534	0.0	290.11524306295723	554.7829716752478	0.0	283.13104998218756	687.4663824289678	0.0	275.2506776142577	804.1287152836167	0.0	313.36027695125256	849.3733099911449	0.0	288.90362036209905	849.9475530484169	0.0	262.43471791102843	818.0855175971602	0.0	344.7677903380952	556.5347078432835	0.0	332.4430654888224	682.7363789474616	0.0	311.5588897886114	786.117479352982	0.0	347.6195363818629	826.0753018008502	0.0	353.0900103525997	816.4787414507769	0.0	302.1726520503303	803.1354594877786	0.0	336.2756863030641	325.8150371182432	0.0	366.0283347277121	233.00464164910622	0.0	374.2839374302651	282.9798421826069	0.0	275.474523632416	355.03168187982874	0.0	240.2676994244915	445.10252039553313	0.0	315.41255689057897	396.6184801698528	0.0	373.6438385671553	365.77020616089334	0.0	398.93607288261217	447.6519227055509	0.0	422.2765198560041	429.0220465249432	0.0
488	8.133333333333333	319.55082491043146	544.6188025192146	0.0	290.1190818087285	554.1539233414536	0.0	283.0911088850503	687.5733050990477	0.0	275.1928242342147	804.6087132988514	0.0	312.72741808999893	849.7232639029716	0.0	288.13472876725274	850.174927083668	0.0	263.02377346786625	818.7554449482824	0.0	344.9095545296129	555.8095837856132	0.0	332.3325239749066	682.6438830976032	0.0	311.6259827715891	786.3662902785401	0.0	348.30452206077683	826.0102465099336	0.0	353.4901795547565	816.3741308953263	0.0	302.031455869495	803.5530367129213	0.0	336.263041960381	325.7744779014423	0.0	366.6041409618594	232.9941032169622	0.0	374.4205729949209	283.4884288976403	0.0	275.0997088501534	355.67724812866294	0.0	242.45781606495015	448.4472308057099	0.0	308.9148227362787	396.8520714208352	0.0	373.1050109462327	366.20566016493916	0.0	396.20495062138923	450.1298341238413	0.0	427.44604025673164	428.66831875446576	0.0
489	8.15	319.5140360369178	544.2824315097375	0.0	290.1468378129583	553.5705042092533	0.0	283.0542739987793	687.7669965764394	0.0	275.0607401394323	805.1153340911428	0.0	312.1225453970138	850.1681909816924	0.0	287.39251362087265	850.4631801711953	0.0	263.5267602430413	819.4665363583847	0.0	345.08109294149375	555.124328779726	0.0	332.2075895402549	682.5678814921349	0.0	311.6928905333323	786.5039207085947	0.0	348.8278452378438	825.9515898461763	0.0	353.79712251617354	816.2452227901597	0.0	301.85920178811165	803.8514707630795	0.0	336.20631041657384	325.8414850495085	0.0	367.1195826014896	233.0223320966121	0.0	374.5188101946074	284.0630078794296	0.0	274.7673277786915	356.37392451301764	0.0	244.44136263764392	451.34325339754315	0.0	301.7631654394477	399.40972160706735	0.0	372.59817396170985	366.7898547753345	0.0	393.56631744556483	452.44103977991426	0.0	432.9814127041705	429.9402356320428	0.0
490	8.166666666666666	319.4854610211835	544.0421365103899	0.0	290.18507827099637	553.0875225922935	0.0	283.0168992075715	688.0383525966687	0.0	274.8563410997008	805.5782987755158	0.0	311.5332742404795	850.6640934588662	0.0	286.66929253914645	850.7667519134577	0.0	263.9026500082923	820.1318999957465	0.0	345.26430531189646	554.5381513731149	0.0	332.0687702747612	682.5168748306783	0.0	311.73761408716825	786.5122349932356	0.0	349.14636886189766	825.9057470388066	0.0	353.9880288094774	816.1020645291453	0.0	301.64736968788986	804.0027106978265	0.0	336.097998684333	326.0359684709489	0.0	367.5364459654674	233.10327303000508	0.0	374.5699674488894	284.6988435504466	0.0	274.4685162023903	357.0976636905561	0.0	246.13081024922582	453.6006604703325	0.0	294.2258223116145	404.15891801208073	0.0	372.1467201636641	367.4817079393457	0.0	391.13228054486524	454.50521433647594	0.0	438.61410305730215	432.8220778338157	0.0
491	8.183333333333334	319.4626488539269	543.926943776942	0.0	290.2229316176395	552.7505813391867	0.0	282.97404713028	688.3729286418956	0.0	274.59537361418967	805.9370121389346	0.0	310.9432586517457	851.1669957796103	0.0	285.95160676347723	851.0469879886871	0.0	264.1355761132962	820.6755564080532	0.0	345.44028865387105	554.10454099249	0.0	331.9177331523431	682.4965405264073	0.0	311.7473425386849	786.3866093255131	0.0	349.2549779931219	825.8811538343404	0.0	354.0623154107672	815.9589557877715	0.0	301.39635943687847	804.0016046021075	0.0	335.93590692122723	326.3607569190897	0.0	367.8308049435822	233.24493183764628	0.0	374.5805059137959	285.38265222500445	0.0	274.1965420475945	357.8181251480354	0.0	247.45572195543676	455.0831570444274	0.0	286.5823869910534	410.814226891328	0.0	371.7601632272672	368.2372316645726	0.0	388.9976977634103	456.2676398397754	0.0	444.0719279663879	437.1779745133038	0.0
492	8.2	319.4446863300713	543.9551994904364	0.0	290.25497675712745	552.5847292138075	0.0	282.92205481042237	688.7542451881186	0.0	274.3020614963108	806.1571785903956	0.0	310.35086615033356	851.6473743006045	0.0	285.2393145507882	851.2871708502704	0.0	264.22991132080716	821.0493559266201	0.0	345.5923345200289	553.8596554201063	0.0	331.75756288544176	682.5102247619778	0.0	311.7197754329136	786.1463442554873	0.0	349.18194522307397	825.8816484506814	0.0	354.03339722932606	815.8277098679304	0.0	301.1207615753541	803.8733814624643	0.0	335.730227641316	326.79570106407226	0.0	368.00055285444	233.44358475229814	0.0	374.56494301571774	286.09022121827354	0.0	273.9519903104154	358.4979611976788	0.0	248.36457267933264	455.7295404401041	0.0	279.116888178573	418.94030474801264	0.0	371.4393682207219	369.0174190743165	0.0	387.2211341383486	457.70750456998803	0.0	449.1018555158069	442.73985190059176	0.0
493	8.216666666666667	319.4293515834671	544.1325318903228	0.0	290.279439800484	552.6012401930968	0.0	282.8570266293897	689.1682244125997	0.0	274.00080985883176	806.2310156086537	0.0	309.77281563733686	852.0918811997032	0.0	284.54997523121926	851.4916254477948	0.0	264.204878962356	821.2337603544181	0.0	345.7051925962452	553.8252652875666	0.0	331.5894086896851	682.5640548897934	0.0	311.65825666115495	785.8322238226427	0.0	348.9809055776557	825.9068367442923	0.0	353.9223961806631	815.7148457635827	0.0	300.84274643058086	803.6614654690583	0.0	335.501849356127	327.3057590379273	0.0	368.05893686255416	233.68508116357677	0.0	374.5451994358921	286.78823419958405	0.0	273.742963285211	359.0967364271435	0.0	248.82556390029933	455.56673054311767	0.0	272.10881196137024	427.97620272349144	0.0	371.1831673512564	369.7901320710504	0.0	385.81962740015365	458.84025473902915	0.0	453.4924357443617	449.11746007517627	0.0
494	8.233333333333333	319.41067864828017	544.4552664996745	0.0	290.2941758761459	552.8129055290717	0.0	282.77257116040596	689.6060868910947	0.0	273.7124089143683	806.1645989165405	0.0	309.2352560686941	852.4956835498048	0.0	283.9078196890013	851.6720737434516	0.0	264.0937240467167	821.2255617644881	0.0	345.764265764638	554.0176544884459	0.0	331.41059349551676	682.6684752483422	0.0	311.56792982743775	785.4892511635918	0.0	348.71695575458693	825.9531503761237	0.0	353.75351438412656	815.6211191818701	0.0	300.5830582075819	803.403690681045	0.0	335.27035144336133	327.8564671722929	0.0	368.02469275564613	233.95323832960156	0.0	374.55137143064024	287.4443046694705	0.0	273.5760979636393	359.5838896751906	0.0	248.83033611267973	454.7206011663341	0.0	265.8113147598057	437.29883719370144	0.0	370.9885049947847	370.5281018175916	0.0	384.77314775571034	459.7083942597371	0.0	457.09889065700725	455.84847958895944	0.0
495	8.25	319.3786309750724	544.9144950144288	0.0	290.2930091690304	553.238970011657	0.0	282.66110225634634	690.0651751212026	0.0	273.45453282742517	805.9710509403347	0.0	308.7628054683511	852.8562971840562	0.0	283.3319411213027	851.835499846503	0.0	263.9418904300804	821.027780206362	0.0	345.7571689670537	554.449464441981	0.0	331.2175148316189	682.8358512460861	0.0	311.4539383511499	785.1505679349755	0.0	348.44318331512	826.0087277413505	0.0	353.5439407038337	815.5408400724274	0.0	300.35727277387076	803.1201433470802	0.0	335.04517587325137	328.42361210101893	0.0	367.92021391277973	234.23732122983364	0.0	374.614093750834	288.0361408673786	0.0	273.4478847864226	359.95143868634403	0.0	248.39556077531878	453.41231032068504	0.0	260.42755468102285	446.3073221292956	0.0	370.8456538759624	371.2073485856374	0.0	384.0342374298517	460.36551312484505	0.0	459.8595558002701	462.472887817979	0.0
